<svg width="116" height="36" viewBox="0 0 116 36" fill="none" xmlns="http://www.w3.org/2000/svg">
<path d="M112.375 36H3.625C1.63125 36 0 34.38 0 32.4V3.6C0 1.62 1.63125 0 3.625 0H112.375C114.369 0 116 1.62 116 3.6V32.4C116 34.38 114.369 36 112.375 36Z" fill="black"/>
<path d="M24.4687 17.8201C24.4687 15.0301 26.8249 13.6801 26.9156 13.5901C25.5562 11.7001 23.5624 11.4301 22.8374 11.3401C21.1156 11.1601 19.3937 12.3301 18.5781 12.3301C17.6718 12.3301 16.3124 11.3401 14.8624 11.3401C12.9593 11.3401 11.2374 12.4201 10.2406 14.1301C8.24682 17.5501 9.69682 22.5901 11.5999 25.3801C12.5968 26.7301 13.6843 28.2601 15.1343 28.1701C16.5843 28.0801 17.1281 27.2701 18.8499 27.2701C20.5718 27.2701 21.0249 28.1701 22.5656 28.1701C24.1062 28.1701 25.1031 26.8201 26.0093 25.4701C27.0968 23.9401 27.5499 22.4101 27.5499 22.3201C27.4593 22.2301 24.4687 21.1501 24.4687 17.8201Z" fill="#E7DBD4"/>
<path d="M21.6595 9.54019C22.3845 8.55019 22.9283 7.29019 22.8376 5.94019C21.7501 6.03019 20.3001 6.66019 19.5751 7.65019C18.8501 8.46019 18.2158 9.81018 18.397 11.0702C19.5751 11.1602 20.8439 10.4402 21.6595 9.54019Z" fill="#E7DBD4"/>
<path d="M45.1317 27.9901H43.138L42.0505 24.5701H38.2442L37.2474 27.9901H35.3442L39.1505 16.3801H41.5067L45.1317 27.9901ZM41.688 23.1301L40.6911 20.0701C40.6005 19.8001 40.4192 18.9901 40.0567 17.9101C39.9661 18.3601 39.7849 19.1701 39.513 20.0701L38.5161 23.1301H41.688Z" fill="#E7DBD4"/>
<path d="M54.8286 23.7598C54.8286 25.1998 54.4661 26.2798 53.6505 27.1798C52.9255 27.8998 52.1099 28.2598 51.0224 28.2598C49.9349 28.2598 49.1192 27.8998 48.6661 27.0898V31.4998H46.763V22.4998C46.763 21.5998 46.763 20.6998 46.6724 19.7098H48.3036L48.3942 21.0598C49.0286 20.0698 49.9349 19.5298 51.2036 19.5298C52.2005 19.5298 53.0161 19.8898 53.6505 20.6998C54.4661 21.4198 54.8286 22.4098 54.8286 23.7598ZM52.9255 23.7598C52.9255 22.9498 52.7442 22.2298 52.3817 21.7798C52.0192 21.2398 51.4755 20.9698 50.7505 20.9698C50.2974 20.9698 49.8442 21.1498 49.4817 21.4198C49.1192 21.6898 48.8474 22.1398 48.7567 22.5898C48.6661 22.8598 48.6661 23.0398 48.6661 23.1298V24.5698C48.6661 25.1998 48.8474 25.6498 49.2099 26.0998C49.5724 26.5498 50.1161 26.7298 50.6599 26.7298C51.3849 26.7298 51.9286 26.4598 52.2911 25.9198C52.7442 25.3798 52.9255 24.6598 52.9255 23.7598Z" fill="#E7DBD4"/>
<path d="M64.5249 23.7598C64.5249 25.1998 64.1624 26.2798 63.3468 27.1798C62.6218 27.8998 61.8061 28.2598 60.7186 28.2598C59.6311 28.2598 58.8155 27.8998 58.3624 27.0898V31.4998H56.4593V22.4998C56.4593 21.5998 56.4593 20.6998 56.3687 19.7098H57.9999L58.0905 21.0598C58.7249 20.0698 59.6312 19.5298 60.8999 19.5298C61.8968 19.5298 62.7124 19.8898 63.3468 20.6998C64.1624 21.4198 64.5249 22.4098 64.5249 23.7598ZM62.6218 23.7598C62.6218 22.9498 62.4405 22.2298 62.078 21.7798C61.7155 21.2398 61.1718 20.9698 60.4468 20.9698C59.9937 20.9698 59.5405 21.1498 59.178 21.4198C58.8155 21.6898 58.5436 22.1398 58.453 22.5898C58.3624 22.8598 58.3624 23.0398 58.3624 23.1298V24.5698C58.3624 25.1998 58.5436 25.6498 58.9061 26.0998C59.2686 26.5498 59.8124 26.7298 60.3562 26.7298C61.0812 26.7298 61.6249 26.4598 61.9874 25.9198C62.4405 25.3798 62.6218 24.6598 62.6218 23.7598Z" fill="#E7DBD4"/>
<path d="M75.3996 24.7503C75.3996 25.7403 75.0371 26.5503 74.4027 27.1803C73.6777 27.9003 72.5902 28.1703 71.2309 28.1703C69.9621 28.1703 68.9652 27.9003 68.2402 27.4503L68.6934 25.9203C69.509 26.3703 70.4152 26.6403 71.4121 26.6403C72.1371 26.6403 72.6809 26.4603 73.0434 26.1903C73.4059 25.8303 73.5871 25.4703 73.5871 24.9303C73.5871 24.4803 73.4059 24.0303 73.134 23.7603C72.7715 23.4003 72.2277 23.1303 71.5027 22.8603C69.4184 22.1403 68.4215 20.9703 68.4215 19.5303C68.4215 18.5403 68.784 17.8203 69.509 17.1903C70.234 16.5603 71.1402 16.2903 72.409 16.2903C73.4965 16.2903 74.3121 16.4703 75.0371 16.8303L74.584 18.3603C73.9496 18.0003 73.2246 17.8203 72.3184 17.8203C71.684 17.8203 71.1402 18.0003 70.7777 18.2703C70.5059 18.5403 70.3246 18.9003 70.3246 19.3503C70.3246 19.8003 70.5059 20.1603 70.8684 20.5203C71.1402 20.7903 71.7746 21.0603 72.5902 21.4203C73.5871 21.7803 74.3121 22.3203 74.8559 22.8603C75.1277 23.3103 75.3996 23.9403 75.3996 24.7503Z" fill="#E7DBD4"/>
<path d="M81.5626 21.0598H79.4782V25.1098C79.4782 26.0998 79.8407 26.6398 80.5657 26.6398C80.9282 26.6398 81.2001 26.6398 81.3813 26.5498L81.472 27.9898C81.1095 28.1698 80.6563 28.1698 80.022 28.1698C79.297 28.1698 78.6626 27.9898 78.3001 27.5398C77.847 27.0898 77.6657 26.3698 77.6657 25.2898V21.0598H76.397V19.6198H77.6657V18.0898L79.4782 17.5498V19.6198H81.5626V21.0598Z" fill="#E7DBD4"/>
<path d="M90.8973 23.7599C90.8973 25.0199 90.5348 26.0999 89.8098 26.9099C88.9941 27.7199 87.9973 28.1699 86.7285 28.1699C85.4598 28.1699 84.4629 27.7199 83.7379 26.9099C83.0129 26.0999 82.6504 25.1099 82.6504 23.8499C82.6504 22.5899 83.0129 21.5099 83.8285 20.6999C84.5535 19.8899 85.641 19.4399 86.9098 19.4399C88.1785 19.4399 89.1754 19.8899 89.9004 20.6999C90.5348 21.5099 90.8973 22.4999 90.8973 23.7599ZM88.9035 23.8499C88.9035 23.0399 88.7223 22.4099 88.3598 21.8699C87.9973 21.2399 87.3629 20.8799 86.6379 20.8799C85.9129 20.8799 85.2785 21.2399 84.916 21.8699C84.5535 22.4099 84.3723 23.1299 84.3723 23.8499C84.3723 24.6599 84.5535 25.2899 84.916 25.8299C85.2785 26.4599 85.9129 26.8199 86.6379 26.8199C87.3629 26.8199 87.9066 26.4599 88.3598 25.8299C88.7223 25.2899 88.9035 24.5699 88.9035 23.8499Z" fill="#E7DBD4"/>
<path d="M96.9685 21.2401C96.7873 21.2401 96.606 21.1501 96.3342 21.1501C95.6998 21.1501 95.1561 21.4201 94.7936 21.8701C94.5217 22.3201 94.3404 22.8601 94.3404 23.4901V27.9001H92.4373V22.1401C92.4373 21.1501 92.4373 20.3401 92.3467 19.5301H93.9779L94.0685 21.1501H94.1592C94.3404 20.6101 94.7029 20.1601 95.0654 19.8001C95.5186 19.5301 95.9717 19.3501 96.4248 19.3501C96.6061 19.3501 96.7873 19.3501 96.8779 19.3501V21.2401H96.9685Z" fill="#E7DBD4"/>
<path d="M105.307 23.3999C105.307 23.7599 105.307 24.0299 105.216 24.2099H99.5972C99.5972 25.0199 99.869 25.6499 100.413 26.0999C100.866 26.4599 101.5 26.7299 102.225 26.7299C103.041 26.7299 103.857 26.6399 104.491 26.3699L104.763 27.6299C103.947 27.9899 103.041 28.1699 101.953 28.1699C100.685 28.1699 99.5972 27.8099 98.8722 26.9999C98.1472 26.2799 97.7847 25.1999 97.7847 23.9399C97.7847 22.6799 98.1472 21.5999 98.7815 20.7899C99.5065 19.8899 100.503 19.4399 101.772 19.4399C102.95 19.4399 103.947 19.8899 104.491 20.7899C105.125 21.5099 105.307 22.4099 105.307 23.3999ZM103.585 22.9499C103.585 22.4099 103.494 21.9599 103.222 21.5099C102.86 20.9699 102.407 20.6999 101.772 20.6999C101.138 20.6999 100.685 20.9699 100.322 21.4199C100.05 21.7799 99.869 22.3199 99.7784 22.8599H103.585V22.9499Z" fill="#E7DBD4"/>
<path d="M41.1441 9.27007C41.1441 10.2601 40.8723 11.0701 40.2379 11.6101C39.6941 12.0601 38.8785 12.3301 37.791 12.3301C37.2473 12.3301 36.7941 12.3301 36.4316 12.2401V6.66007C36.8848 6.57007 37.4285 6.57007 38.0629 6.57007C39.0598 6.57007 39.7848 6.75007 40.3285 7.20007C40.7816 7.65007 41.1441 8.37007 41.1441 9.27007ZM40.1473 9.27007C40.1473 8.64007 39.966 8.10007 39.6035 7.74007C39.241 7.38007 38.6973 7.20007 38.0629 7.20007C37.791 7.20007 37.5191 7.20007 37.3379 7.29007V11.5201C37.4285 11.5201 37.7004 11.5201 37.9723 11.5201C38.6973 11.5201 39.241 11.3401 39.6035 10.9801C39.966 10.6201 40.1473 9.99007 40.1473 9.27007Z" fill="#E7DBD4"/>
<path d="M46.2188 10.17C46.2188 10.8 46.0375 11.34 45.675 11.7C45.3125 12.15 44.7688 12.33 44.1344 12.33C43.5 12.33 43.0469 12.15 42.6844 11.7C42.3219 11.34 42.1406 10.8 42.1406 10.17C42.1406 9.54001 42.3219 9.00001 42.6844 8.64001C43.0469 8.19001 43.5906 8.01001 44.225 8.01001C44.8594 8.01001 45.3125 8.19001 45.675 8.64001C46.0375 9.00001 46.2188 9.54001 46.2188 10.17ZM45.3125 10.17C45.3125 9.81001 45.2219 9.45001 45.0406 9.18001C44.8594 8.82001 44.5875 8.73001 44.225 8.73001C43.8625 8.73001 43.5906 8.91001 43.4094 9.18001C43.2281 9.45001 43.1375 9.81001 43.1375 10.17C43.1375 10.53 43.2281 10.89 43.4094 11.16C43.5906 11.52 43.8625 11.61 44.225 11.61C44.5875 11.61 44.8594 11.43 45.0406 11.07C45.2219 10.89 45.3125 10.53 45.3125 10.17Z" fill="#E7DBD4"/>
<path d="M53.1969 8.1001L51.9281 12.2401H51.1125L50.5688 10.4401C50.3875 9.9901 50.2969 9.5401 50.2063 9.0901C50.1156 9.5401 50.025 9.9901 49.8437 10.4401L49.3 12.2401H48.4844L47.125 8.1001H48.0312L48.4844 10.0801C48.575 10.5301 48.6656 10.9801 48.7563 11.4301C48.8469 11.0701 48.9375 10.6201 49.1188 10.0801L49.6625 8.1001H50.3875L50.9313 9.9901C51.1125 10.4401 51.2031 10.8901 51.2938 11.3401C51.3844 10.8901 51.475 10.4401 51.5656 9.9901L52.1094 8.1001H53.1969Z" fill="#E7DBD4"/>
<path d="M57.9094 12.2402H57.0031V9.90017C57.0031 9.18017 56.7313 8.82017 56.1875 8.82017C55.9156 8.82017 55.7344 8.91017 55.5531 9.09017C55.3719 9.27017 55.2813 9.54017 55.2813 9.81017V12.2402H54.375V9.27017C54.375 8.91017 54.375 8.55017 54.375 8.10017H55.1906V8.73017C55.2813 8.55017 55.4625 8.37017 55.6438 8.19017C55.9156 8.01017 56.1875 7.92017 56.4594 7.92017C56.8219 7.92017 57.1844 8.01017 57.4563 8.28017C57.8188 8.55017 57.9094 9.00017 57.9094 9.63017V12.2402Z" fill="#E7DBD4"/>
<path d="M60.4473 12.24H59.541V6.20996H60.4473V12.24Z" fill="#E7DBD4"/>
<path d="M65.8848 10.17C65.8848 10.8 65.7035 11.34 65.341 11.7C64.9785 12.15 64.4348 12.33 63.8004 12.33C63.166 12.33 62.7129 12.15 62.3504 11.7C61.9879 11.34 61.8066 10.8 61.8066 10.17C61.8066 9.54001 61.9879 9.00001 62.3504 8.64001C62.7129 8.28001 63.2566 8.01001 63.891 8.01001C64.5254 8.01001 64.9785 8.19001 65.341 8.64001C65.7035 9.00001 65.8848 9.54001 65.8848 10.17ZM64.9785 10.17C64.9785 9.81001 64.8879 9.45001 64.7066 9.18001C64.5254 8.82001 64.2535 8.73001 63.891 8.73001C63.5285 8.73001 63.2566 8.91001 63.0754 9.18001C62.8941 9.45001 62.8035 9.81001 62.8035 10.17C62.8035 10.53 62.8941 10.89 63.0754 11.16C63.2566 11.52 63.5285 11.61 63.891 11.61C64.2535 11.61 64.5254 11.43 64.7066 11.07C64.8879 10.89 64.9785 10.53 64.9785 10.17Z" fill="#E7DBD4"/>
<path d="M70.3248 12.24H69.5092L69.4186 11.79C69.1467 12.15 68.6936 12.33 68.2404 12.33C67.8779 12.33 67.5154 12.24 67.3342 11.97C67.1529 11.7 66.9717 11.43 66.9717 11.16C66.9717 10.62 67.1529 10.26 67.6061 9.99001C68.0592 9.72001 68.6029 9.63001 69.4186 9.63001V9.54001C69.4186 9.00001 69.1467 8.73001 68.6029 8.73001C68.1498 8.73001 67.8779 8.82001 67.5154 9.00001L67.3342 8.37001C67.6967 8.10001 68.1498 8.01001 68.7842 8.01001C69.8717 8.01001 70.4154 8.55001 70.4154 9.72001V11.25C70.3248 11.7 70.3248 11.97 70.3248 12.24ZM69.4186 10.8V10.17C68.4217 10.17 67.8779 10.44 67.8779 10.98C67.8779 11.16 67.9686 11.34 68.0592 11.43C68.1498 11.52 68.3311 11.61 68.5123 11.61C68.6936 11.61 68.8748 11.52 69.0561 11.43C69.2373 11.34 69.3279 11.16 69.4186 10.98C69.4186 10.98 69.4186 10.89 69.4186 10.8Z" fill="#E7DBD4"/>
<path d="M75.5814 12.2398H74.7658V11.6098C74.4939 12.1498 74.0408 12.3298 73.4064 12.3298C72.8627 12.3298 72.5002 12.1498 72.1377 11.7898C71.7752 11.4298 71.6846 10.8898 71.6846 10.2598C71.6846 9.6298 71.8658 9.0898 72.2283 8.6398C72.5908 8.2798 73.0439 8.0998 73.4971 8.0998C74.0408 8.0998 74.4033 8.2798 74.6752 8.6398V6.2998H75.5814V11.1598C75.5814 11.5198 75.5814 11.8798 75.5814 12.2398ZM74.6752 10.5298V9.8098C74.6752 9.7198 74.6752 9.6298 74.6752 9.5398C74.5846 9.3598 74.4939 9.1798 74.3127 8.9998C74.1314 8.8198 73.9502 8.8198 73.6783 8.8198C73.3158 8.8198 73.0439 8.9998 72.8627 9.2698C72.6814 9.5398 72.5908 9.8998 72.5908 10.3498C72.5908 10.7998 72.6814 11.0698 72.8627 11.3398C73.0439 11.6098 73.3158 11.7898 73.6783 11.7898C73.9502 11.7898 74.2221 11.6998 74.4033 11.4298C74.5846 11.0698 74.6752 10.7998 74.6752 10.5298Z" fill="#E7DBD4"/>
<path d="M83.4658 10.17C83.4658 10.8 83.2846 11.34 82.9221 11.7C82.5596 12.15 82.0158 12.33 81.3814 12.33C80.7471 12.33 80.2939 12.15 79.9314 11.7C79.5689 11.34 79.3877 10.8 79.3877 10.17C79.3877 9.54001 79.5689 9.00001 79.9314 8.64001C80.2939 8.19001 80.8377 8.01001 81.4721 8.01001C82.1064 8.01001 82.5596 8.19001 82.9221 8.64001C83.2846 9.00001 83.4658 9.54001 83.4658 10.17ZM82.4689 10.17C82.4689 9.81001 82.3783 9.45001 82.1971 9.18001C82.0158 8.82001 81.7439 8.73001 81.3814 8.73001C81.0189 8.73001 80.7471 8.91001 80.5658 9.18001C80.3846 9.45001 80.2939 9.81001 80.2939 10.17C80.2939 10.53 80.3846 10.89 80.5658 11.16C80.7471 11.52 81.0189 11.61 81.3814 11.61C81.7439 11.61 82.0158 11.43 82.1971 11.07C82.3783 10.89 82.4689 10.53 82.4689 10.17Z" fill="#E7DBD4"/>
<path d="M88.4499 12.2402H87.5437V9.90017C87.5437 9.18017 87.2718 8.82017 86.728 8.82017C86.4562 8.82017 86.2749 8.91017 86.0937 9.09017C85.9124 9.27017 85.8218 9.54017 85.8218 9.81017V12.2402H84.9155V9.27017C84.9155 8.91017 84.9155 8.55017 84.9155 8.10017H85.7312V8.73017C85.8218 8.55017 86.003 8.37017 86.1843 8.19017C86.4562 8.01017 86.728 7.92017 86.9999 7.92017C87.3624 7.92017 87.7249 8.01017 87.9968 8.28017C88.3593 8.55017 88.4499 9.00017 88.4499 9.63017V12.2402Z" fill="#E7DBD4"/>
<path d="M94.6129 8.82011H93.616V10.8001C93.616 11.3401 93.7973 11.5201 94.1598 11.5201C94.341 11.5201 94.4317 11.5201 94.6129 11.5201V12.2401C94.4317 12.3301 94.1598 12.3301 93.8879 12.3301C93.5254 12.3301 93.2535 12.2401 93.0723 11.9701C92.891 11.7901 92.8004 11.3401 92.8004 10.8901V8.82011H92.166V8.10011H92.8004V7.38011L93.7067 7.11011V8.10011H94.7035V8.82011H94.6129Z" fill="#E7DBD4"/>
<path d="M99.5065 12.24H98.6003V9.89996C98.6003 9.17996 98.3284 8.81996 97.7847 8.81996C97.3315 8.81996 97.0597 8.99996 96.8784 9.44996C96.8784 9.53996 96.8784 9.62996 96.8784 9.80996V12.24H95.9722V6.20996H96.8784V8.72996C97.1503 8.27996 97.6034 8.00996 98.1472 8.00996C98.5097 8.00996 98.8722 8.09996 99.0534 8.36996C99.3253 8.63996 99.5065 9.17996 99.5065 9.71996V12.24Z" fill="#E7DBD4"/>
<path d="M104.491 9.9901C104.491 10.1701 104.491 10.2601 104.491 10.4401H101.772C101.772 10.8901 101.953 11.1601 102.134 11.3401C102.406 11.5201 102.678 11.6101 103.041 11.6101C103.494 11.6101 103.856 11.5201 104.128 11.4301L104.309 12.0601C103.947 12.2401 103.494 12.3301 102.95 12.3301C102.316 12.3301 101.772 12.1501 101.409 11.7901C101.047 11.4301 100.866 10.8901 100.866 10.2601C100.866 9.6301 101.047 9.0901 101.409 8.7301C101.772 8.2801 102.225 8.1001 102.859 8.1001C103.494 8.1001 103.947 8.2801 104.219 8.7301C104.4 9.0001 104.491 9.4501 104.491 9.9901ZM103.675 9.7201C103.675 9.4501 103.584 9.1801 103.494 9.0001C103.313 8.7301 103.131 8.6401 102.769 8.6401C102.497 8.6401 102.225 8.7301 102.044 9.0001C101.863 9.1801 101.772 9.4501 101.772 9.7201H103.675Z" fill="#E7DBD4"/>
</svg>
