<svg width="116" height="36" viewBox="0 0 116 36" fill="none" xmlns="http://www.w3.org/2000/svg">
<path d="M112.375 36H3.625C1.63125 36 0 34.38 0 32.4V3.6C0 1.62 1.63125 0 3.625 0H112.375C114.369 0 116 1.62 116 3.6V32.4C116 34.38 114.369 36 112.375 36Z" fill="black"/>
<path fill-rule="evenodd" clip-rule="evenodd" d="M8.88086 17.6399V8.18995C8.88086 7.64995 9.33398 7.19995 9.78711 7.19995C10.2402 7.19995 10.4215 7.28995 10.6934 7.46995L28.184 17.01C28.5465 17.19 28.7277 17.46 28.7277 17.73C28.7277 18 28.5465 18.27 28.184 18.45L10.6934 27.99C10.5121 28.0799 10.2402 28.26 9.78711 28.26C9.33398 28.26 8.88086 27.8099 8.88086 27.27V17.6399Z" fill="url(#paint0_linear_64:503)"/>
<path fill-rule="evenodd" clip-rule="evenodd" d="M20.2096 17.73L9.60645 7.19995C9.69707 7.19995 9.69707 7.19995 9.78769 7.19995C10.2408 7.19995 10.4221 7.28995 10.6939 7.46995L23.5627 14.4899L20.2096 17.73Z" fill="url(#paint1_linear_64:503)"/>
<path fill-rule="evenodd" clip-rule="evenodd" d="M23.4715 20.8801L20.209 17.6401L23.5621 14.3101L28.184 16.8301C28.5465 17.0101 28.7277 17.2801 28.7277 17.5501C28.7277 17.8201 28.5465 18.0901 28.184 18.2701L23.4715 20.8801Z" fill="url(#paint2_linear_64:503)"/>
<path fill-rule="evenodd" clip-rule="evenodd" d="M64.4343 30.5102C63.9812 30.1502 63.6187 29.5202 63.4374 29.1602L64.8874 28.5302C64.978 28.7102 65.1593 28.9802 65.3405 29.2502C65.703 29.6102 66.2468 29.9702 66.7905 29.9702C67.3343 29.9702 67.9686 29.7002 68.3311 29.2502C68.603 28.8002 68.7843 28.3502 68.7843 27.7202V27.1802C67.6968 28.5302 65.4311 28.3502 64.1624 26.9102C62.803 25.4702 62.803 23.0402 64.1624 21.6002C65.5218 20.2502 67.5155 20.0702 68.6936 21.3302V20.7002H70.2343V27.4502C70.2343 29.1602 69.5999 30.1502 68.7843 30.7802C68.2405 31.2302 67.4249 31.4102 66.6999 31.4102C65.8843 31.3202 65.0687 31.0502 64.4343 30.5102ZM102.406 30.8702L103.947 27.2702L101.228 21.0602H102.769L104.672 25.4702L106.575 21.0602H108.116L103.947 30.8702H102.406ZM95.0655 27.4502C94.6124 27.0002 94.4312 26.3702 94.4312 25.7402C94.4312 25.2002 94.6124 24.6602 94.9749 24.3002C95.6093 23.6702 96.5155 23.4002 97.5124 23.4002C98.1468 23.4002 98.6905 23.4902 99.1436 23.7602C99.1436 22.6802 98.2374 22.2302 97.5124 22.2302C96.878 22.2302 96.2436 22.5902 95.9718 23.2202L94.6124 22.6802C94.8843 22.0502 95.6093 20.8802 97.4218 20.8802C98.328 20.8802 99.2343 21.1502 99.778 21.7802C100.322 22.4102 100.503 23.1302 100.503 24.1202V27.9002H98.9624V27.2702C98.7812 27.5402 98.4186 27.7202 98.1468 27.9002C97.7843 28.0802 97.3311 28.1702 96.878 28.1702C96.3343 28.0802 95.5186 27.9002 95.0655 27.4502ZM46.7624 24.2102C46.7624 22.4102 48.1218 20.4302 50.5687 20.4302C52.9249 20.4302 54.3749 22.4102 54.3749 24.2102C54.3749 26.0102 53.0155 27.9902 50.5687 27.9902C48.1218 27.9902 46.7624 26.0102 46.7624 24.2102ZM54.9187 24.2102C54.9187 22.4102 56.278 20.4302 58.7249 20.4302C61.0812 20.4302 62.5312 22.4102 62.5312 24.2102C62.5312 26.0102 61.1718 27.9902 58.7249 27.9902C56.3687 27.9902 54.9187 26.0102 54.9187 24.2102ZM36.5218 26.1902C34.2562 23.9402 34.3468 20.2502 36.6124 17.9102C37.7905 16.7402 39.2405 16.2002 40.7811 16.2002C42.2312 16.2002 43.6811 16.7402 44.7686 17.8202L43.6811 18.9902C42.0499 17.3702 39.4218 17.4602 37.8812 19.0802C36.2499 20.7902 36.2499 23.4002 37.8812 25.1102C39.5124 26.8202 42.2311 26.9102 43.8624 25.2002C44.4061 24.6602 44.5874 23.9402 44.678 23.2202H40.8718V21.6002H46.2186C46.3093 21.9602 46.3093 22.4102 46.3093 22.8602C46.3093 24.2102 45.7655 25.5602 44.8593 26.4602C43.8624 27.4502 42.4124 27.9902 40.9624 27.9902C39.3311 27.9002 37.6999 27.3602 36.5218 26.1902ZM74.8562 26.8202C73.4968 25.3802 73.4968 22.9502 74.8562 21.4202C76.2155 19.9802 78.4812 19.9802 79.7499 21.4202C80.203 21.8702 80.4749 22.5002 80.7468 23.1302L75.7624 25.2002C76.0343 25.8302 76.6687 26.3702 77.5749 26.3702C78.3905 26.3702 78.9343 26.1002 79.478 25.2902L80.8374 26.1902C80.6562 26.3702 80.4749 26.5502 80.3843 26.7302C78.8437 28.2602 76.2155 28.2602 74.8562 26.8202ZM84.2812 27.9002V17.9102H87.5437C89.4468 17.9102 90.9874 19.2602 90.9874 20.8802C90.9874 22.5002 89.628 23.8502 87.9062 23.8502H85.9124V27.8102H84.2812V27.9002ZM91.8937 27.9002V17.9102H93.4343V27.9002H91.8937ZM71.4124 27.7202V16.5602H73.0437V27.7202H71.4124ZM99.053 24.9302C98.6905 24.6602 98.1468 24.5702 97.603 24.5702C96.5155 24.5702 95.8811 25.1102 95.8811 25.7402C95.8811 26.3702 96.5155 26.7302 97.1499 26.7302C98.0562 26.7302 99.053 26.0102 99.053 24.9302ZM52.653 24.2102C52.653 23.1302 51.928 21.9602 50.5687 21.9602C49.2093 21.9602 48.4843 23.1302 48.4843 24.2102C48.4843 25.2902 49.2093 26.4602 50.5687 26.4602C51.8374 26.4602 52.653 25.2902 52.653 24.2102ZM60.8093 24.2102C60.8093 23.1302 60.0843 21.9602 58.7249 21.9602C57.3655 21.9602 56.6405 23.1302 56.6405 24.2102C56.6405 25.2902 57.3655 26.4602 58.7249 26.4602C60.0843 26.4602 60.8093 25.2902 60.8093 24.2102ZM68.8749 24.8402C68.8749 24.7502 68.8749 24.6602 68.9655 24.5702C68.9655 24.4802 68.9655 24.3002 68.9655 24.2102C68.9655 24.1202 68.9655 23.9402 68.9655 23.8502V23.7602C68.9655 23.6702 68.8749 23.4902 68.8749 23.4002C68.603 22.5002 67.7874 21.8702 66.9718 21.8702C65.8843 21.8702 64.978 22.9502 64.978 24.1202C64.978 25.3802 65.8843 26.3702 67.0624 26.3702C67.7874 26.4602 68.5124 25.8302 68.8749 24.8402ZM75.4905 24.0302L78.8437 22.5902C78.4812 21.9602 77.9374 21.7802 77.4843 21.7802C76.1249 21.8702 75.3093 23.3102 75.4905 24.0302ZM89.3562 20.9702C89.3562 20.0702 88.6312 19.4402 87.6343 19.4402H85.8218V22.5902H87.7249C88.6311 22.5902 89.3562 21.8702 89.3562 20.9702Z" fill="#E7DBD4"/>
<path fill-rule="evenodd" clip-rule="evenodd" d="M103.585 29.0703H103.494V28.98H103.585H103.494V29.0703H103.585Z" fill="#E7DBD4"/>
<path fill-rule="evenodd" clip-rule="evenodd" d="M103.766 29.0703C103.766 28.98 103.766 28.98 103.766 29.0703C103.675 28.98 103.675 28.98 103.766 29.0703C103.675 29.0703 103.675 29.0703 103.766 29.0703ZM103.766 28.98C103.766 29.0703 103.766 29.0703 103.766 28.98C103.766 29.0703 103.675 29.0703 103.766 28.98C103.675 28.98 103.766 28.98 103.766 28.98Z" fill="#E7DBD4"/>
<path fill-rule="evenodd" clip-rule="evenodd" d="M103.857 28.98H103.766H103.857V29.0703V28.98Z" fill="#E7DBD4"/>
<path d="M35.2529 9.08998C35.2529 7.46998 36.4311 6.47998 37.8811 6.47998C38.8779 6.47998 39.5123 6.92998 39.9654 7.55998L39.2404 8.00998C38.9686 7.64998 38.5154 7.37998 37.8811 7.37998C36.8842 7.37998 36.1592 8.09998 36.1592 9.17998C36.1592 10.26 36.8842 10.98 37.8811 10.98C38.4248 10.98 38.8779 10.71 39.0592 10.53V9.71998H37.6092V8.90998H40.0561V10.8C39.6029 11.34 38.8779 11.7 37.9717 11.7C36.4311 11.7 35.2529 10.62 35.2529 9.08998Z" fill="#E7DBD4"/>
<path d="M41.1436 11.6101V6.57007H44.5873V7.38007H41.9592V8.64007H44.4967V9.45007H41.9592V10.8901H44.5873V11.7001L41.1436 11.6101Z" fill="#E7DBD4"/>
<path d="M47.1246 11.6101V7.38007H45.584V6.57007H49.5715V7.38007H48.0309V11.6101H47.1246Z" fill="#E7DBD4"/>
<path d="M52.6533 11.6101V6.57007H53.5596V11.6101H52.6533Z" fill="#E7DBD4"/>
<path d="M56.0064 11.6101V7.38007H54.4658V6.57007H58.4533V7.38007H56.9127V11.6101H56.0064Z" fill="#E7DBD4"/>
<path d="M61.3535 9.08998C61.3535 7.55998 62.441 6.47998 63.9816 6.47998C65.5223 6.47998 66.6098 7.55998 66.6098 9.08998C66.6098 10.62 65.5223 11.7 63.9816 11.7C62.441 11.7 61.3535 10.53 61.3535 9.08998ZM65.6129 9.08998C65.6129 8.00998 64.9785 7.28998 63.891 7.28998C62.8941 7.28998 62.1691 8.09998 62.1691 9.08998C62.1691 10.17 62.8035 10.89 63.891 10.89C64.9785 10.89 65.6129 10.08 65.6129 9.08998Z" fill="#E7DBD4"/>
<path d="M71.1403 11.6101L68.5122 8.01007V11.6101H67.606V6.57007H68.5122L71.1403 10.0801V6.57007H72.0466V11.6101H71.1403Z" fill="#E7DBD4"/>
<defs>
<linearGradient id="paint0_linear_64:503" x1="14.7419" y1="5.91619" x2="19.7494" y2="26.6239" gradientUnits="userSpaceOnUse">
<stop stop-color="#006884"/>
<stop offset="1" stop-color="#8AD1D0"/>
</linearGradient>
<linearGradient id="paint1_linear_64:503" x1="8.55583" y1="8.85937" x2="22.3381" y2="16.3619" gradientUnits="userSpaceOnUse">
<stop stop-color="#24BBB6"/>
<stop offset="1" stop-color="#DBE692"/>
</linearGradient>
<linearGradient id="paint2_linear_64:503" x1="24.4633" y1="21.2581" x2="24.4633" y2="14.1046" gradientUnits="userSpaceOnUse">
<stop stop-color="#FCC072"/>
<stop offset="1" stop-color="#F58A5B"/>
</linearGradient>
</defs>
</svg>
