<svg width="180" height="46" viewBox="0 0 180 46" fill="none" xmlns="http://www.w3.org/2000/svg">
<g clip-path="url(#clip0_17:677)">
<path fill-rule="evenodd" clip-rule="evenodd" d="M8.85432 19.233H12.9883L6.40276 10.3161L12.6518 2.0721H8.78222L2.62927 10.3882V2.0721H-1V19.233H2.62927V10.5324L8.85432 19.233ZM26.2045 15.1471L27.4543 19.233H31.372L25.2912 2H20.8447L14.7879 19.233H18.7056L19.9555 15.1471H26.2045ZM23.777 7.07137C23.9052 7.48797 24.0093 7.83248 24.0895 8.10487L25.3393 12.0947H20.8688L22.0946 8.10487C22.1587 7.92862 22.2468 7.63218 22.3589 7.21558C22.4871 6.78295 22.6153 6.3343 22.7435 5.86962C22.8877 5.38892 22.9999 4.98834 23.08 4.66788C23.1601 4.98834 23.2643 5.36489 23.3924 5.79752C23.5206 6.23015 23.6488 6.65476 23.777 7.07137ZM45.7793 19.233H49.4086V2.0721H45.7793V8.80188H38.9774V2.0721H35.3481V19.233H38.9774V11.8303H45.7793V19.233ZM71.6565 24.2323V16.3489H69.1088V2.0721H65.4795V16.2046H59.1583V2.0721H55.529V19.233H68.1474V24.2323H71.6565ZM76.1089 19.233H85.9873V16.2287H79.7382V11.8063H85.5546V8.82592H79.7382V5.05244H85.9873V2.0721H76.1089V19.233ZM101.311 19.233H104.941V2.0721H94.1008C93.9085 3.7225 93.7002 5.28477 93.4759 6.75891C93.2675 8.21703 93.0753 9.49089 92.899 10.5805C92.7228 11.6701 92.5866 12.4712 92.4904 12.984C92.234 14.3299 91.9777 15.2513 91.7213 15.748C91.481 16.2287 91.1284 16.469 90.6638 16.469C90.4234 16.469 90.1991 16.445 89.9908 16.3969C89.7985 16.3489 89.5982 16.2928 89.3899 16.2287V19.209C89.9187 19.3853 90.4955 19.4734 91.1204 19.4734C92.0818 19.4734 92.859 19.2891 93.4518 18.9206C94.0607 18.5521 94.5334 18.0153 94.8699 17.3102C95.2224 16.6052 95.5028 15.756 95.7111 14.7625C95.8393 14.1537 95.9675 13.4566 96.0957 12.6715C96.2238 11.8703 96.344 11.0291 96.4562 10.1478C96.5844 9.25054 96.6965 8.36926 96.7927 7.504C96.9048 6.63874 97.009 5.83758 97.1051 5.10051H101.311V19.233ZM112.827 19.233L116.841 12.6475H119.1V19.233H122.729V2.0721H117.153C115.102 2.0721 113.508 2.49672 112.37 3.34596C111.232 4.17917 110.664 5.38892 110.664 6.97523C110.664 7.90458 110.816 8.68972 111.12 9.33065C111.425 9.95556 111.809 10.4603 112.274 10.8449C112.739 11.2134 113.203 11.4938 113.668 11.6861L108.789 19.233H112.827ZM115.11 5.55717C115.639 5.22068 116.368 5.05244 117.297 5.05244H119.1V9.69118H117.393C116.368 9.69118 115.599 9.47486 115.086 9.04223C114.589 8.59358 114.341 7.99271 114.341 7.23961C114.341 6.45447 114.597 5.89366 115.11 5.55717ZM139.17 3.5142C138.161 2.5528 136.55 2.0721 134.339 2.0721H128.859V19.233H132.488V13.1282H134.051C135.717 13.1282 137.031 12.8638 137.992 12.335C138.97 11.8063 139.667 11.1092 140.083 10.244C140.5 9.3627 140.708 8.42534 140.708 7.43189C140.708 5.76547 140.195 4.45957 139.17 3.5142ZM132.488 5.05244H134.147C136.07 5.05244 137.031 5.88565 137.031 7.55207C137.031 8.46539 136.726 9.13036 136.118 9.54697C135.525 9.94755 134.716 10.1478 133.69 10.1478H132.488V5.05244ZM149.023 2.0721H145.754V19.233H150.128L158.084 6.08594H158.18C158.164 6.1981 158.14 6.43845 158.108 6.80699C158.092 7.1595 158.068 7.5761 158.036 8.0568C158.02 8.5375 158.004 9.04223 157.988 9.571C157.972 10.0837 157.964 10.5564 157.964 10.9891V19.233H161.208V2.0721H156.858L148.926 15.099H148.854C148.87 14.9708 148.886 14.7385 148.902 14.402C148.918 14.0495 148.935 13.6409 148.951 13.1762C148.967 12.6955 148.983 12.2068 148.999 11.7101C149.015 11.2134 149.023 10.7647 149.023 10.3642V2.0721ZM169.098 19.233L173.111 12.6475H175.371V19.233H179V2.0721H173.424C171.373 2.0721 169.779 2.49672 168.641 3.34596C167.503 4.17917 166.934 5.38892 166.934 6.97523C166.934 7.90458 167.087 8.68972 167.391 9.33065C167.696 9.95556 168.08 10.4603 168.545 10.8449C169.009 11.2134 169.474 11.4938 169.939 11.6861L165.06 19.233H169.098ZM171.381 5.55717C171.91 5.22068 172.639 5.05244 173.568 5.05244H175.371V9.69118H173.664C172.639 9.69118 171.87 9.47486 171.357 9.04223C170.86 8.59358 170.612 7.99271 170.612 7.23961C170.612 6.45447 170.868 5.89366 171.381 5.55717ZM53.0805 40.7808C52.8209 40.4347 52.7056 40.2328 52.7056 40.0021C52.7056 39.7569 52.7777 39.4829 52.9075 39.0791C53.3257 37.7956 54.4793 35.6613 55.46 34.1616C54.9408 34.0895 54.6812 33.7434 54.5947 33.527C54.5226 33.3107 54.5515 33.1954 54.8543 33.1521C55.3158 33.0944 55.7484 32.9214 56.1954 32.7195C56.6137 32.532 57.0174 32.3878 57.5077 32.3013C58.4884 32.1426 59.195 32.6041 59.7863 33.5847C60.0026 33.9452 60.1179 34.5221 60.1179 35.0268C60.1179 37.3486 57.825 40.3337 54.6524 41.4009C54.4793 41.4586 54.3351 41.4874 54.1765 41.4874C53.715 41.4874 53.441 41.2423 53.0805 40.7808ZM58.8489 33.7145C58.7047 33.4838 58.4884 33.3973 58.3153 33.3973C58.0025 33.3973 57.4989 33.6162 57.0715 33.802C56.8882 33.8817 56.719 33.9553 56.5848 34.0029C56.6281 34.3635 56.5127 34.897 56.181 35.4883C55.0562 37.3774 54.2198 38.8772 53.9169 39.9299C53.8592 40.1318 53.8448 40.2472 53.8448 40.3482C53.8448 40.4779 53.9169 40.5068 54.0611 40.4491C57.2482 39.2377 59.0219 36.2238 59.0219 34.5077C59.0219 34.1616 58.9643 33.902 58.8489 33.7145ZM63.7289 37.738C64.1471 37.1755 64.45 36.4978 64.2913 36.368C64.075 36.1949 63.0079 37.0746 62.3157 38.459C62.431 38.5311 62.532 38.56 62.6329 38.56C62.979 38.56 63.4405 38.1273 63.7289 37.738ZM65.2287 36.4112C65.3152 36.541 65.3729 36.7573 65.3729 36.9448C65.3729 37.8101 64.4067 39.3243 63.1377 39.3243C62.7916 39.3243 62.4455 39.2233 62.1138 39.007C62.0273 39.2954 61.984 39.5983 61.984 39.8578C61.984 40.4924 62.2436 40.9394 62.6762 40.9394C63.7722 40.9394 64.7384 39.8723 65.3297 38.9782C65.4883 38.7474 65.6758 38.7186 65.7911 39.007C65.8344 39.1368 65.8488 39.555 65.5892 39.9444C64.9836 40.824 63.8299 41.5018 62.705 41.5163C61.3639 41.5307 60.6284 40.651 60.6284 39.4973C60.6284 38.9782 60.7726 38.4157 61.0755 37.8389C61.8254 36.3103 62.9935 35.546 63.8299 35.546C64.0318 35.546 64.1904 35.5748 64.3346 35.6613C64.7384 35.8921 65.0268 36.1228 65.2287 36.4112ZM72.2274 39.0358C72.4148 38.7907 72.6744 38.7907 72.6744 39.108C72.6744 39.3387 72.6167 39.6415 72.4004 39.9732C71.8524 40.824 70.8574 41.4009 69.6749 41.8335C68.9106 43.6938 67.8578 45.8858 66.6897 46.4338C66.3436 46.5636 65.9831 46.5059 65.6803 46.1021C65.4784 45.7993 65.2621 45.4243 65.2621 44.9773C65.2621 43.6794 66.6609 42.194 68.4202 41.5884L68.6077 41.1125C68.2905 41.3288 67.9155 41.473 67.5261 41.473C66.7041 41.473 66.2283 40.8817 66.2283 40.0165C66.2283 37.9543 68.6654 35.5748 70.0787 35.5748C70.5545 35.5748 70.8718 35.8344 71.0016 36.1805C71.0189 36.1502 71.0388 36.116 71.0605 36.0787L71.0611 36.0778L71.0615 36.0771L71.0619 36.0763C71.1123 35.9898 71.1723 35.8867 71.2323 35.7767C71.4054 35.445 71.665 35.4594 71.8524 35.6758C71.9822 35.8344 72.0832 36.1084 72.0832 36.4112C72.0832 36.8006 71.9245 37.19 71.564 37.911C71.4502 38.135 71.3294 38.3678 71.2049 38.6078L71.2039 38.6097C70.8235 39.3427 70.4081 40.1432 70.0498 40.9683C70.9439 40.4203 71.665 39.8146 72.2274 39.0358ZM67.5117 40.4058C67.5117 40.6798 67.5694 40.8673 67.6992 40.8673C68.1607 40.8817 68.8385 40.0021 69.5451 38.7907C70.1075 37.8101 70.3671 37.1034 70.3671 36.7285C70.3671 36.5554 70.3238 36.4689 70.2229 36.4689C69.7326 36.4689 67.5117 38.733 67.5117 40.4058ZM67.1224 44.4004C67.4108 43.8957 67.728 43.2612 68.002 42.5401C67.3964 42.9728 66.9493 43.4919 66.6465 43.9967C66.2283 44.7033 66.0408 45.3811 66.185 45.5109C66.3148 45.6118 66.6753 45.1792 67.1224 44.4004ZM73.1556 40.0165C73.1556 39.3964 73.4152 38.5888 73.9343 37.8677C75.088 36.2093 76.2705 35.5316 77.006 35.5316C77.5252 35.5316 77.8424 35.7911 77.9722 36.1661L78.2462 35.719C78.4193 35.4306 78.6644 35.4162 78.8375 35.6181C79.0826 35.9065 79.2124 36.541 78.8375 37.2909C78.7248 37.5292 78.5367 37.8378 78.3286 38.1791C77.844 38.9739 77.2512 39.9462 77.2512 40.6222C77.2512 40.8385 77.3088 40.9683 77.4531 40.9683C77.9722 40.9683 78.6933 39.9876 79.1692 39.0503C79.3278 38.7618 79.4576 38.7474 79.6018 39.0503C79.6595 39.1801 79.746 39.5694 79.5441 39.9876C79.1692 40.7808 78.2462 41.5451 77.3665 41.5451C76.6455 41.5451 76.2273 41.1702 76.1119 40.6366C75.6937 41.0404 75.0448 41.4874 74.4679 41.4874C73.6171 41.4874 73.1556 40.8673 73.1556 40.0165ZM74.4535 40.4203C74.4535 40.6798 74.5112 40.8529 74.6554 40.8529C75.1313 40.8529 75.7946 39.9732 76.5013 38.7618C77.0637 37.7812 77.3233 37.0746 77.3233 36.6997C77.3233 36.5266 77.2944 36.4257 77.1502 36.4257C76.8618 36.4257 75.8668 37.3342 75.1313 38.5167C74.6987 39.1945 74.4535 39.9588 74.4535 40.4203ZM87.5471 41.473C87.1577 41.1702 86.9125 40.7808 86.9125 40.1751C86.9125 40.0165 86.9269 39.8578 86.9558 39.6704C87.0567 39.0214 87.4749 37.3919 87.9653 35.8056C86.8404 37.5361 85.557 39.6127 84.7782 41.4009C84.6917 41.6028 84.4754 41.646 84.2879 41.4586C84.1293 41.2999 84.0283 41.0548 84.0283 40.7375C84.0283 40.4635 84.1004 40.1463 84.2302 39.829C84.8215 38.3869 87.0856 34.6086 88.5998 32.5753C88.7728 32.3445 89.0036 32.258 89.2776 32.4743C89.6669 32.806 89.8688 33.1809 89.8688 33.6424C89.8688 33.902 89.7967 34.2625 89.6669 34.6807C89.2199 35.9786 88.9315 36.8583 88.4123 38.7907C89.1161 37.7249 89.8262 36.8491 90.5454 35.9621L90.5455 35.962L90.5456 35.9619C91.3736 34.9408 92.2137 33.9046 93.0703 32.5464C93.2578 32.2436 93.4452 32.2292 93.7192 32.4887C94.0076 32.7916 94.1374 33.1377 94.1374 33.4838C94.1374 33.8731 93.9788 34.2769 93.7913 34.6663C92.7963 36.5266 91.3686 39.382 90.662 41.4009C90.561 41.6893 90.4312 41.6893 90.2005 41.4874C90.0275 41.3288 89.8688 41.0836 89.8688 40.6654C89.8688 40.4347 89.8977 40.1607 89.9842 39.8434V39.8578C90.1572 39.1801 90.8639 37.6659 91.5705 36.2238C90.3015 37.8533 88.9026 39.8002 88.0518 41.3432C87.8932 41.6316 87.7634 41.6316 87.5471 41.473ZM100.515 38.7474C100.356 39.1801 100.255 39.6127 100.255 39.9876C100.255 40.4058 100.385 40.6943 100.616 40.6943C101.02 40.6798 101.712 39.7713 102.245 38.6753C102.577 37.9831 102.765 37.2765 102.765 36.7862C102.765 36.5266 102.736 36.3247 102.635 36.3247C102.361 36.3247 101.654 36.8727 101.02 37.9254L100.515 38.7474ZM97.2414 36.8439C97.2414 37.1034 97.3135 37.4784 97.4722 37.6659C97.6164 37.3342 97.674 36.9881 97.674 36.8006C97.674 36.5843 97.5587 36.4978 97.4577 36.4978C97.3712 36.4978 97.2414 36.6131 97.2414 36.8439ZM96.3473 37.0169C95.6407 37.7668 94.9341 39.0358 94.9341 40.1607C94.9341 40.5645 95.0494 40.7231 95.2802 40.7231C95.6695 40.7231 96.2608 40.1607 96.7511 39.2522C96.953 38.8628 97.1405 38.4734 97.2703 38.0985C96.8665 37.8533 96.4771 37.4207 96.3473 37.0169ZM104.538 39.0214C104.683 38.7186 104.985 38.7907 105.043 39.0791C105.101 39.382 105.072 39.6848 104.841 40.0742C104.279 41.0115 103.125 41.6028 102.058 41.6028C100.89 41.6028 99.9814 41.3144 99.5632 40.4779C98.871 41.7614 98.1644 43.2035 97.5443 44.5879C97.4289 44.8619 97.227 44.934 97.0395 44.6456C96.9386 44.487 96.8376 44.2707 96.8376 43.9678C96.8376 43.7227 96.8953 43.4054 96.9963 43.0305C97.2558 42.2085 98.323 40.0453 99.3036 38.2571C99.044 38.3725 98.7845 38.4157 98.4672 38.4013C98.0923 39.829 96.9386 41.4874 95.5974 41.4874C95.1215 41.4874 94.6168 41.2999 94.1986 40.7664C93.9246 40.4058 93.8092 39.9732 93.8092 39.5262C93.8092 38.8772 94.0256 38.1706 94.4149 37.4928C95.0639 36.3535 95.958 35.6181 96.9242 35.6181C97.3424 35.6181 97.6019 35.7623 97.8759 36.1372C97.9361 36.2084 97.9938 36.2738 98.0484 36.3356L98.0493 36.3367L98.0495 36.3369C98.4259 36.7635 98.6562 37.0246 98.5682 37.8677C99.3325 37.7235 100.111 36.7718 100.803 35.7334C101.02 35.4018 101.279 35.4594 101.409 35.7767C101.452 35.8921 101.496 36.0363 101.524 36.1805C101.885 35.8921 102.289 35.6902 102.721 35.6902C103.024 35.6902 103.327 35.8056 103.543 36.0651C103.846 36.3824 103.962 36.7718 103.962 37.2044C103.962 37.8245 103.716 38.5888 103.399 39.2522C103.053 39.9299 102.592 40.651 102.173 40.9971C103.183 40.7664 104.163 39.8146 104.538 39.0214ZM114.131 36.5987C114.131 36.4545 114.059 36.2959 113.886 36.2959C113.569 36.2959 113.151 36.4545 112.358 37.2332C111.521 38.012 110.728 38.3436 110.209 38.4013C109.906 39.5983 109.012 41.0115 107.902 41.3865C107.757 41.4441 107.57 41.473 107.339 41.473C106.863 41.473 106.344 41.2855 105.955 40.7519C105.681 40.377 105.551 39.9588 105.551 39.4973C105.551 38.8628 105.782 38.1417 106.142 37.4784C106.633 36.642 107.599 35.5892 108.695 35.5892C109.127 35.5892 109.344 35.7623 109.632 36.1228L109.848 36.3824C110.079 36.6275 110.339 36.9304 110.339 37.4928C110.339 37.6446 110.325 37.7039 110.299 37.8225L110.299 37.8226L110.299 37.8227L110.295 37.8389C110.835 37.6207 111.293 37.0547 111.566 36.7169C111.636 36.6306 111.694 36.5591 111.738 36.5122C112.415 35.7479 112.978 35.546 113.583 35.546C114.016 35.546 114.492 35.6758 114.809 36.1084C114.997 36.368 115.069 36.6708 115.069 36.9737C115.069 37.2909 114.824 37.8101 114.578 38.1417C114.218 38.6465 113.569 39.3243 112.805 39.8434C113.281 39.9444 113.612 40.3049 113.742 40.7087C114.247 40.377 114.824 39.7713 115.213 39.0214C115.256 38.9493 115.314 38.8916 115.415 38.8916C115.588 38.8916 115.689 39.0214 115.689 39.2666C115.689 39.3964 115.631 39.6992 115.487 39.9732C115.155 40.5356 114.405 41.0404 113.814 41.3144C113.8 42.8286 112.286 44.9629 111.377 45.4676C111.233 45.5541 111.074 45.6118 110.901 45.6118C110.685 45.6118 110.468 45.5109 110.252 45.2513C110.021 44.9773 109.747 44.6312 109.747 44.1553C109.747 43.9822 109.791 43.7659 109.906 43.5208C110.454 42.3527 111.593 41.6028 112.79 41.1125C112.877 40.6222 112.747 40.3914 112.56 40.3914C112.228 40.3914 111.896 40.4779 111.449 40.7808C111.377 40.824 111.29 40.8529 111.204 40.8529C110.973 40.8529 110.901 40.5068 110.901 40.3337C110.901 39.8867 111.074 39.6127 111.521 39.3531C113.266 38.3581 114.131 37.3486 114.131 36.5987ZM108.925 36.8439C108.925 37.1034 108.998 37.4784 109.156 37.6659C109.3 37.3342 109.358 36.9881 109.358 36.8006C109.358 36.5843 109.243 36.4978 109.142 36.4978C109.055 36.4978 108.925 36.6131 108.925 36.8439ZM106.676 40.1318C106.676 40.377 106.719 40.7664 106.979 40.7664C107.325 40.7664 107.988 40.103 108.507 39.2377C108.695 38.8916 108.882 38.5023 108.983 38.1417C108.522 37.8677 108.219 37.4351 108.118 37.0169C107.844 37.3053 107.541 37.6803 107.281 38.1129C106.921 38.7907 106.676 39.6127 106.676 40.1318ZM111.334 43.1458C110.959 43.6794 110.8 44.1841 110.8 44.487C110.8 44.5879 110.829 44.66 110.872 44.66C111.06 44.66 111.435 44.1553 111.824 43.5063C112.127 43.0016 112.43 42.4248 112.646 41.8912C112.069 42.2661 111.637 42.7132 111.334 43.1458ZM116.137 40.0165C116.137 39.3964 116.396 38.5888 116.916 37.8677C118.069 36.2093 119.252 35.5316 119.987 35.5316C120.506 35.5316 120.824 35.7911 120.953 36.1661L121.227 35.719C121.4 35.4306 121.646 35.4162 121.819 35.6181C122.064 35.9065 122.194 36.541 121.819 37.2909C121.706 37.5292 121.518 37.8378 121.31 38.1791C120.825 38.9739 120.232 39.9462 120.232 40.6222C120.232 40.8385 120.29 40.9683 120.434 40.9683C120.953 40.9683 121.674 39.9876 122.15 39.0503C122.309 38.7618 122.439 38.7474 122.583 39.0503C122.641 39.1801 122.727 39.5694 122.525 39.9876C122.15 40.7808 121.227 41.5451 120.348 41.5451C119.627 41.5451 119.208 41.1702 119.093 40.6366C118.675 41.0404 118.026 41.4874 117.449 41.4874C116.598 41.4874 116.137 40.8673 116.137 40.0165ZM117.435 40.4203C117.435 40.6798 117.492 40.8529 117.637 40.8529C118.112 40.8529 118.776 39.9732 119.482 38.7618C120.045 37.7812 120.304 37.0746 120.304 36.6997C120.304 36.5266 120.276 36.4257 120.131 36.4257C119.843 36.4257 118.848 37.3342 118.112 38.5167C117.68 39.1945 117.435 39.9588 117.435 40.4203ZM47.716 37.0171L47.716 37.0171L47.7158 37.0171C47.4274 37.0748 47.067 37.1469 46.7066 37.2334L47.0383 36.5989C47.1536 36.3826 47.1969 36.2239 47.1969 36.0797C47.1969 35.849 47.0383 35.6038 46.8941 35.5029C46.7354 35.3875 46.6345 35.4164 46.5191 35.5894C46.2884 35.9355 45.9711 36.4691 45.6971 36.9738L45.5241 36.7287C45.2356 36.3249 44.9616 36.1518 44.5723 36.1951C44.3127 36.2239 44.255 36.397 44.3271 36.57C44.4484 36.7867 44.5906 37.0033 44.7348 37.2231C44.8306 37.3691 44.9272 37.5164 45.0193 37.666C44.9962 37.6718 44.979 37.676 44.9653 37.6794C44.9459 37.6842 44.9335 37.6873 44.9211 37.6905C44.8989 37.6965 44.8769 37.7031 44.8154 37.7216C44.7538 37.7402 44.6524 37.7708 44.4713 37.8247C43.9378 38.0266 43.7359 38.315 43.6926 38.5313C43.6493 38.7476 43.8224 38.8053 44.0675 38.7476C44.2983 38.6755 44.5867 38.6034 44.8895 38.5457C44.8714 38.6092 44.8304 38.6899 44.7953 38.7589C44.7747 38.7996 44.756 38.8362 44.7453 38.863C44.63 39.1225 44.6155 39.3533 44.6155 39.4831C44.6155 39.6561 44.6876 39.8292 44.7886 39.9445C44.9328 40.1176 45.1491 40.1176 45.2501 39.9013C45.3943 39.5696 45.5962 39.1946 45.8125 38.8197L45.9855 39.0649C46.2595 39.4542 46.5335 39.4831 46.8219 39.4686C47.0671 39.4542 47.1969 39.2956 47.0527 39.1225C46.8941 38.9351 46.5768 38.488 46.447 38.1852C46.8364 38.0987 47.0671 38.041 47.2834 37.9833C47.7016 37.8679 48.0333 37.6372 48.1054 37.2911C48.1487 37.0603 48.0477 36.9594 47.716 37.0171ZM130.829 37.2334C131.189 37.1469 131.55 37.0748 131.838 37.0171C132.17 36.9594 132.271 37.0603 132.228 37.2911C132.156 37.6372 131.824 37.8679 131.406 37.9833C131.189 38.041 130.959 38.0987 130.569 38.1852C130.699 38.488 131.016 38.9351 131.175 39.1225C131.319 39.2956 131.189 39.4542 130.944 39.4686C130.656 39.4831 130.382 39.4542 130.108 39.0649L129.935 38.8197C129.718 39.1946 129.517 39.5696 129.372 39.9013C129.271 40.1176 129.055 40.1176 128.911 39.9445C128.81 39.8292 128.738 39.6561 128.738 39.4831C128.738 39.3533 128.752 39.1225 128.868 38.863C128.878 38.8362 128.897 38.7996 128.918 38.7589C128.953 38.6898 128.994 38.6092 129.012 38.5457C128.709 38.6034 128.421 38.6755 128.19 38.7476C127.945 38.8053 127.772 38.7476 127.815 38.5313C127.858 38.315 128.06 38.0266 128.594 37.8247C128.955 37.7172 128.999 37.7024 129.043 37.6905C129.064 37.6849 129.086 37.68 129.142 37.666C129.049 37.5164 128.953 37.369 128.857 37.2231C128.713 37.0033 128.571 36.7867 128.449 36.57C128.377 36.397 128.435 36.2239 128.695 36.1951C129.084 36.1518 129.358 36.3249 129.646 36.7287L129.819 36.9738C130.093 36.4691 130.411 35.9355 130.641 35.5894C130.757 35.4164 130.858 35.3875 131.016 35.5029C131.161 35.6038 131.319 35.849 131.319 36.0797C131.319 36.2239 131.276 36.3826 131.161 36.5989L130.829 37.2334Z" fill="white"/>
</g>
<defs>
<clipPath id="clip0_17:677">
<rect width="180" height="46" fill="white"/>
</clipPath>
</defs>
</svg>
