<svg width="140" height="46" viewBox="0 0 140 46" fill="none" xmlns="http://www.w3.org/2000/svg">
<path d="M1.13184 21V20.5176H2.91309V8.17871H1.13184V7.69629H6.62402V8.17871H4.84277V13.708H5.98389C6.28695 13.708 6.5529 13.6523 6.78174 13.541C7.01058 13.4297 7.19922 13.2843 7.34766 13.105C7.50228 12.9256 7.63525 12.6875 7.74658 12.3906C7.85791 12.0938 7.9445 11.8 8.00635 11.5093C8.0682 11.2186 8.12695 10.863 8.18262 10.4424C8.3125 9.46517 8.56917 8.71989 8.95264 8.20654C9.34229 7.6932 9.90511 7.43652 10.6411 7.43652C11.1359 7.43652 11.5317 7.58496 11.8286 7.88184C12.1317 8.17253 12.2832 8.55908 12.2832 9.0415C12.2832 9.40641 12.1595 9.7373 11.9121 10.0342C11.6647 10.3249 11.3276 10.4702 10.9009 10.4702C10.6659 10.4702 10.4587 10.3929 10.2793 10.2383C10.0999 10.0837 10.0103 9.861 10.0103 9.57031C10.0103 9.26107 10.134 9.02604 10.3813 8.86523C10.6226 8.71061 10.7432 8.55599 10.7432 8.40137C10.7432 8.30859 10.7091 8.23128 10.6411 8.16943C10.5731 8.1014 10.4772 8.06738 10.3535 8.06738C9.88346 8.06738 9.5 8.27148 9.20312 8.67969C8.91243 9.08789 8.71761 9.69401 8.61865 10.498C8.40218 12.2979 7.92285 13.3957 7.18066 13.7915V13.8843C8.33724 13.8843 9.18148 14.1471 9.71338 14.6729C10.2515 15.1986 10.5854 16.0459 10.7153 17.2148C10.8205 18.1735 10.9318 18.894 11.0493 19.3765C11.1668 19.8527 11.3184 20.1929 11.5039 20.397C11.6956 20.6011 11.9554 20.7031 12.2832 20.7031C12.512 20.7031 12.8646 20.6382 13.3408 20.5083L13.4336 20.8887C12.543 21.1113 11.8317 21.2227 11.2998 21.2227C10.8112 21.2227 10.4154 21.167 10.1123 21.0557C9.81543 20.9443 9.55876 20.7279 9.34229 20.4062C9.12581 20.0846 8.95882 19.6672 8.84131 19.1538C8.72998 18.6343 8.63411 17.9385 8.55371 17.0664C8.50423 16.516 8.44238 16.0799 8.36816 15.7583C8.29395 15.4305 8.17025 15.1398 7.99707 14.8862C7.83008 14.6265 7.60433 14.4471 7.31982 14.3481C7.03532 14.243 6.66423 14.1904 6.20654 14.1904H4.84277V20.5176H6.62402V21H1.13184ZM14.1758 21V20.5176H16.1982L20.4844 7.43652H21.041L25.9023 20.5176H27.5908V21H21.3564V20.5176H23.6758L22.0986 16.25H18.2207L16.8291 20.5176H18.7773V21H14.1758ZM18.3691 15.7676H21.9131L20.0391 10.7114L18.3691 15.7676ZM29.0195 21V20.5176H30.8008V8.17871H29.0195V7.69629H34.5117V8.17871H32.7305V13.7822H38.0742V8.17871H36.293V7.69629H41.7852V8.17871H40.0039V20.5176H41.7852V21H36.293V20.5176H38.0742V14.2646H32.7305V20.5176H34.5117V21H29.0195ZM43.6777 21V20.5176H45.459V8.17871H43.6777V7.69629H49.1699V8.17871H47.3887V20.5176H52.8438V8.17871H51.0625V7.69629H56.5547V8.17871H54.7734V18.9497C54.7734 19.1229 54.7796 19.2682 54.792 19.3857C54.8105 19.4971 54.8415 19.6177 54.8848 19.7476C54.9342 19.8774 55.0116 19.9919 55.1167 20.0908C55.2218 20.1836 55.3548 20.2609 55.5156 20.3228C56.4681 20.6815 56.9443 21.3092 56.9443 22.2061C56.9443 22.5029 56.8794 22.7936 56.7495 23.0781C56.6258 23.3688 56.4372 23.641 56.1836 23.8945C55.93 24.1481 55.5806 24.3522 55.1353 24.5068C54.6961 24.6676 54.1921 24.748 53.623 24.748C52.9118 24.748 51.8542 24.4759 50.4502 23.9316C49.8255 23.6904 49.3029 23.5142 48.8823 23.4028C48.4618 23.2977 48.0103 23.2451 47.5278 23.2451C47.3979 23.2451 47.2928 23.2729 47.2124 23.3286C47.1382 23.3843 47.1011 23.4585 47.1011 23.5513C47.1011 23.7059 47.1908 23.8327 47.3701 23.9316C47.6608 24.0924 47.8062 24.3027 47.8062 24.5625C47.8062 24.7542 47.7443 24.915 47.6206 25.0449C47.5031 25.181 47.3021 25.249 47.0176 25.249C46.7269 25.249 46.4857 25.1624 46.2939 24.9893C46.1084 24.8161 46.0156 24.5811 46.0156 24.2842C46.0156 23.8698 46.1981 23.4956 46.563 23.1616C46.9279 22.8338 47.3516 22.5926 47.834 22.438C48.3164 22.2834 48.7803 22.2061 49.2256 22.2061C49.8379 22.2061 50.7254 22.4318 51.8882 22.8833C53.1252 23.3595 54.1426 23.5977 54.9404 23.5977C55.4167 23.5977 55.7785 23.4616 56.0259 23.1895C56.2795 22.9235 56.4062 22.5957 56.4062 22.2061C56.4062 21.8721 56.2918 21.5876 56.063 21.3525C55.8341 21.1175 55.5033 21 55.0703 21H43.6777ZM58.6328 21V20.5176H60.4141V8.17871H58.6328V7.69629H69.0234L69.1162 11.1846H68.6338C68.5843 10.9372 68.5379 10.7362 68.4946 10.5815C68.4513 10.4269 68.3678 10.2104 68.2441 9.93213C68.1266 9.65381 67.9782 9.39095 67.7988 9.14355C67.3411 8.50033 66.6361 8.17871 65.6836 8.17871H62.3438V13.8008H64.0693C64.6816 13.8008 65.2074 13.4668 65.6465 12.7988C65.7826 12.5885 65.9001 12.2948 65.999 11.9175C66.098 11.5402 66.1475 11.265 66.1475 11.0918H66.5928V16.9736H66.1475C66.1475 16.8005 66.098 16.5252 65.999 16.1479C65.9001 15.7707 65.7826 15.4769 65.6465 15.2666C65.2135 14.611 64.6878 14.2832 64.0693 14.2832H62.3438V20.5176H65.4702C66.8494 20.5176 67.8421 20.1001 68.4482 19.2651C68.7451 18.8631 68.9523 18.4951 69.0698 18.1611C69.1873 17.8271 69.2956 17.3911 69.3945 16.853H69.877L69.8213 21H58.6328ZM71.25 19.5156C71.25 19.0394 71.3923 18.6466 71.6768 18.3374C71.9674 18.0282 72.3169 17.8735 72.7251 17.8735C73.0467 17.8735 73.3003 17.9694 73.4858 18.1611C73.6714 18.3529 73.7642 18.5755 73.7642 18.8291C73.7642 19.1136 73.6745 19.3517 73.4951 19.5435C73.3219 19.729 73.2354 19.896 73.2354 20.0444C73.2354 20.1434 73.2601 20.2176 73.3096 20.2671C73.3652 20.3166 73.4642 20.3413 73.6064 20.3413C73.8662 20.3413 74.1322 20.1558 74.4043 19.7847C74.6764 19.4136 74.9084 18.9714 75.1001 18.458C75.298 17.9447 75.4465 17.422 75.5454 16.8901C76.2505 13.105 77.0638 10.2135 77.9854 8.21582V8.17871H75.833V7.69629H81.418V20.5176H83.1992V21H77.707V20.5176H79.4883V8.17871H78.709C78.1338 9.53939 77.6761 10.8228 77.3359 12.0288C76.9958 13.2349 76.6247 14.8429 76.2227 16.853C75.6351 19.7661 74.5898 21.2227 73.0869 21.2227C72.5736 21.2227 72.1375 21.0711 71.7788 20.7681C71.4263 20.465 71.25 20.0475 71.25 19.5156ZM84.4424 20.8423L84.5537 20.3784C84.9372 20.5207 85.3052 20.5918 85.6577 20.5918C86.1649 20.5918 86.5236 20.4588 86.7339 20.1929C86.9504 19.9207 87.0586 19.46 87.0586 18.8105V16.9644C87.0586 16.2531 87.2998 15.6532 87.7822 15.1646C88.2646 14.6698 88.9728 14.3636 89.9067 14.2461V14.1533C89.0903 14.0173 88.4347 13.6895 87.9399 13.1699C87.4513 12.6504 87.207 11.9824 87.207 11.166C87.207 10.8135 87.2534 10.4764 87.3462 10.1548C87.439 9.82699 87.5905 9.51465 87.8008 9.21777C88.0111 8.91471 88.2677 8.65186 88.5708 8.4292C88.88 8.20654 89.2666 8.03027 89.7305 7.90039C90.2005 7.76432 90.7201 7.69629 91.2891 7.69629H97.0225V8.17871H95.2412V20.5176H97.0225V21H91.5303V20.5176H93.3115V14.3945H91.2334C89.7367 14.3945 88.9883 15.1738 88.9883 16.7324V18.8198C88.9883 19.2651 88.9048 19.6486 88.7378 19.9702C88.577 20.2918 88.3574 20.533 88.0791 20.6938C87.807 20.8547 87.5317 20.9691 87.2534 21.0371C86.9751 21.1113 86.6844 21.1484 86.3813 21.1484C85.7072 21.1484 85.0609 21.0464 84.4424 20.8423ZM89.1367 11.2495C89.1367 11.6453 89.1646 11.9979 89.2202 12.3071C89.2759 12.6102 89.3656 12.8885 89.4893 13.1421C89.6191 13.3895 89.8016 13.5812 90.0366 13.7173C90.2716 13.8472 90.5562 13.9121 90.8901 13.9121H93.3115V8.17871H91.4375C91.0293 8.17871 90.6706 8.2653 90.3613 8.43848C90.0583 8.60547 89.8201 8.8374 89.647 9.13428C89.4738 9.42497 89.3439 9.74658 89.2573 10.0991C89.1769 10.4517 89.1367 10.8351 89.1367 11.2495ZM98.915 21V20.5176H100.696V8.17871H98.915V7.69629H104.723C105.298 7.69629 105.876 7.78288 106.458 7.95605C107.039 8.12923 107.524 8.36426 107.914 8.66113C109.089 9.56413 109.677 10.6898 109.677 12.0381C109.677 13.1019 109.306 13.9523 108.563 14.5894C107.821 15.2264 106.881 15.5449 105.743 15.5449H102.626V20.5176H104.407V21H98.915ZM102.626 15.0625H105.558C105.879 15.0625 106.158 15.0099 106.393 14.9048C106.634 14.7996 106.829 14.6574 106.977 14.478C107.132 14.2987 107.255 14.0729 107.348 13.8008C107.441 13.5286 107.506 13.241 107.543 12.938C107.58 12.6287 107.599 12.2793 107.599 11.8896C107.599 11.5618 107.574 11.2464 107.524 10.9434C107.475 10.6341 107.391 10.3187 107.274 9.99707C107.156 9.66927 106.98 9.3693 106.745 9.09717C106.516 8.82503 106.238 8.60547 105.91 8.43848C105.57 8.2653 105.057 8.17871 104.37 8.17871H102.626V15.0625ZM111.551 21V20.5176H113.332V8.17871H111.551V7.69629H117.043V8.17871H115.262V18.792L120.754 8.84668V8.17871H118.973V7.69629H124.465V8.17871H122.684V20.5176H124.465V21H118.973V20.5176H120.754V9.9043L115.262 19.8496V20.5176H117.043V21H111.551ZM125.708 20.8423L125.819 20.3784C126.203 20.5207 126.571 20.5918 126.923 20.5918C127.431 20.5918 127.789 20.4588 128 20.1929C128.216 19.9207 128.324 19.46 128.324 18.8105V16.9644C128.324 16.2531 128.565 15.6532 129.048 15.1646C129.53 14.6698 130.238 14.3636 131.172 14.2461V14.1533C130.356 14.0173 129.7 13.6895 129.206 13.1699C128.717 12.6504 128.473 11.9824 128.473 11.166C128.473 10.8135 128.519 10.4764 128.612 10.1548C128.705 9.82699 128.856 9.51465 129.066 9.21777C129.277 8.91471 129.533 8.65186 129.836 8.4292C130.146 8.20654 130.532 8.03027 130.996 7.90039C131.466 7.76432 131.986 7.69629 132.555 7.69629H138.288V8.17871H136.507V20.5176H138.288V21H132.796V20.5176H134.577V14.3945H132.499C131.002 14.3945 130.254 15.1738 130.254 16.7324V18.8198C130.254 19.2651 130.17 19.6486 130.003 19.9702C129.843 20.2918 129.623 20.533 129.345 20.6938C129.073 20.8547 128.797 20.9691 128.519 21.0371C128.241 21.1113 127.95 21.1484 127.647 21.1484C126.973 21.1484 126.326 21.0464 125.708 20.8423ZM130.402 11.2495C130.402 11.6453 130.43 11.9979 130.486 12.3071C130.542 12.6102 130.631 12.8885 130.755 13.1421C130.885 13.3895 131.067 13.5812 131.302 13.7173C131.537 13.8472 131.822 13.9121 132.156 13.9121H134.577V8.17871H132.703C132.295 8.17871 131.936 8.2653 131.627 8.43848C131.324 8.60547 131.086 8.8374 130.913 9.13428C130.739 9.42497 130.61 9.74658 130.523 10.0991C130.443 10.4517 130.402 10.8351 130.402 11.2495Z" fill="#DEC09A"/>
<path d="M35.8731 38.7165C35.8731 38.9473 35.9885 39.1492 36.2481 39.4953C36.6086 39.9567 36.8826 40.2019 37.3441 40.2019C37.5027 40.2019 37.6469 40.1731 37.8199 40.1154C40.9926 39.0482 43.2855 36.0631 43.2855 33.7413C43.2855 33.2366 43.1701 32.6597 42.9538 32.2992C42.3625 31.3186 41.6559 30.8571 40.6753 31.0157C40.185 31.1023 39.7812 31.2465 39.363 31.434C38.9159 31.6358 38.4833 31.8089 38.0218 31.8666C37.719 31.9098 37.6902 32.0252 37.7623 32.2415C37.8488 32.4578 38.1084 32.8039 38.6275 32.876C37.6469 34.3758 36.4932 36.5101 36.075 37.7936C35.9452 38.1974 35.8731 38.4714 35.8731 38.7165ZM41.4829 32.1117C41.6559 32.1117 41.8722 32.1983 42.0164 32.429C42.1318 32.6165 42.1895 32.876 42.1895 33.2222C42.1895 34.9382 40.4157 37.9522 37.2287 39.1636C37.0845 39.2213 37.0124 39.1924 37.0124 39.0626C37.0124 38.9617 37.0268 38.8463 37.0845 38.6444C37.3873 37.5917 38.2237 36.0919 39.3486 34.2028C39.6802 33.6115 39.7956 33.0779 39.7524 32.7174C40.1994 32.5588 41.0358 32.1117 41.4829 32.1117ZM47.4589 35.0825C47.6175 35.2122 47.3147 35.89 46.8965 36.4524C46.6081 36.8418 46.1466 37.2744 45.8005 37.2744C45.6995 37.2744 45.5986 37.2456 45.4832 37.1735C46.1754 35.7891 47.2426 34.9094 47.4589 35.0825ZM48.5405 35.6593C48.5405 35.4718 48.4828 35.2555 48.3962 35.1257C48.1944 34.8373 47.9059 34.6066 47.5021 34.3758C47.3579 34.2893 47.1993 34.2605 46.9974 34.2605C46.161 34.2605 44.9929 35.0248 44.243 36.5534C43.9402 37.1302 43.796 37.6926 43.796 38.2118C43.796 39.3655 44.5314 40.2452 45.8726 40.2307C46.9974 40.2163 48.1511 39.5385 48.7568 38.6589C49.0164 38.2695 49.0019 37.8513 48.9587 37.7215C48.8433 37.4331 48.6558 37.4619 48.4972 37.6926C47.9059 38.5867 46.9397 39.6539 45.8437 39.6539C45.4111 39.6539 45.1515 39.2068 45.1515 38.5723C45.1515 38.3127 45.1948 38.0099 45.2813 37.7215C45.613 37.9378 45.9591 38.0387 46.3052 38.0387C47.5743 38.0387 48.5405 36.5245 48.5405 35.6593ZM55.842 37.8224C55.842 37.5052 55.5824 37.5052 55.3949 37.7503C54.8325 38.5291 54.1115 39.1347 53.2174 39.6827C53.6932 38.5867 54.2701 37.534 54.7316 36.6255C55.0921 35.9044 55.2507 35.5151 55.2507 35.1257C55.2507 34.8229 55.1498 34.5489 55.02 34.3902C54.8325 34.1739 54.5729 34.1595 54.3999 34.4912C54.3133 34.6498 54.2268 34.794 54.1691 34.895C54.0393 34.5489 53.7221 34.2893 53.2462 34.2893C51.8329 34.2893 49.3958 36.6688 49.3958 38.731C49.3958 39.5962 49.8717 40.1875 50.6937 40.1875C51.0831 40.1875 51.458 40.0433 51.7753 39.8269L51.5878 40.3028C49.8284 40.9085 48.4296 42.3939 48.4296 43.6918C48.4296 44.1388 48.6459 44.5138 48.8478 44.8166C49.1506 45.2204 49.5112 45.2781 49.8573 45.1483C51.0254 44.6003 52.0781 42.4083 52.8424 40.548C54.0249 40.1154 55.02 39.5385 55.568 38.6877C55.7843 38.356 55.842 38.0532 55.842 37.8224ZM50.8667 39.5818C50.7369 39.5818 50.6793 39.3943 50.6793 39.1203C50.6793 37.4475 52.9001 35.1834 53.3904 35.1834C53.4914 35.1834 53.5346 35.2699 53.5346 35.443C53.5346 35.8179 53.275 36.5245 52.7126 37.5052C52.006 38.7165 51.3282 39.5962 50.8667 39.5818ZM51.1696 41.2546C50.8956 41.9757 50.5783 42.6102 50.2899 43.1149C49.8429 43.8937 49.4823 44.3263 49.3525 44.2253C49.2083 44.0956 49.3958 43.4178 49.814 42.7111C50.1168 42.2064 50.5639 41.6873 51.1696 41.2546ZM57.1019 36.5822C56.5827 37.3033 56.3232 38.1109 56.3232 38.731C56.3232 39.5818 56.7846 40.2019 57.6355 40.2019C58.2123 40.2019 58.8612 39.7548 59.2795 39.3511C59.3948 39.8846 59.813 40.2596 60.5341 40.2596C61.4138 40.2596 62.3367 39.4953 62.7116 38.7021C62.9135 38.2839 62.827 37.8945 62.7693 37.7648C62.6251 37.4619 62.4953 37.4763 62.3367 37.7648C61.8608 38.7021 61.1398 39.6827 60.6206 39.6827C60.4764 39.6827 60.4187 39.553 60.4187 39.3366C60.4187 38.3704 61.6301 36.7985 62.005 36.0054C62.38 35.2555 62.2502 34.621 62.005 34.3326C61.832 34.1307 61.5868 34.1451 61.4138 34.4335L61.1398 34.8806C61.01 34.5056 60.6927 34.246 60.1735 34.246C59.4381 34.246 58.2556 34.9238 57.1019 36.5822ZM57.8229 39.5674C57.6787 39.5674 57.621 39.3943 57.621 39.1347C57.621 38.6733 57.8662 37.909 58.2988 37.2312C59.0343 36.0487 60.0293 35.1401 60.3178 35.1401C60.462 35.1401 60.4908 35.2411 60.4908 35.4141C60.4908 35.7891 60.2312 36.4957 59.6688 37.4763C58.9622 38.6877 58.2988 39.5674 57.8229 39.5674ZM70.0801 38.8896C70.0801 39.4953 70.3252 39.8846 70.7146 40.1875C70.9309 40.3461 71.0607 40.3461 71.2193 40.0577C72.0702 38.5146 73.469 36.5678 74.738 34.9382C74.0314 36.3803 73.3248 37.8945 73.1517 38.5723V38.5579C73.0652 38.8752 73.0364 39.1492 73.0364 39.3799C73.0364 39.7981 73.195 40.0433 73.368 40.2019C73.5988 40.4038 73.7286 40.4038 73.8295 40.1154C74.5361 38.0964 75.9638 35.2411 76.9589 33.3808C77.1463 32.9914 77.305 32.5876 77.305 32.1983C77.305 31.8522 77.1752 31.5061 76.8868 31.2032C76.6128 30.9436 76.4253 30.9581 76.2378 31.2609C74.6371 33.799 73.0941 35.2122 71.5798 37.5052C72.099 35.5728 72.3874 34.6931 72.8345 33.3952C72.9643 32.977 73.0364 32.6165 73.0364 32.3569C73.0364 31.8954 72.8345 31.5205 72.4451 31.1888C72.1711 30.9725 71.9404 31.059 71.7673 31.2897C70.2531 33.3231 67.989 37.1014 67.3978 38.5435C67.268 38.8607 67.1959 39.178 67.1959 39.452C67.1959 39.7693 67.2968 40.0144 67.4555 40.1731C67.6429 40.3605 67.8592 40.3173 67.9458 40.1154C68.7245 38.3272 70.008 36.2506 71.1328 34.52C70.6425 36.1063 70.2243 37.7359 70.1233 38.3849C70.0945 38.5723 70.0801 38.731 70.0801 38.8896ZM83.4229 38.7021C83.4229 38.3272 83.5239 37.8945 83.6825 37.4619L84.1873 36.6399C84.8218 35.5872 85.5284 35.0392 85.8024 35.0392C85.9034 35.0392 85.9322 35.2411 85.9322 35.5007C85.9322 35.991 85.7447 36.6976 85.413 37.3898C84.8795 38.4858 84.1873 39.3943 83.7835 39.4087C83.5527 39.4087 83.4229 39.1203 83.4229 38.7021ZM80.6397 36.3803C80.4811 36.1929 80.409 35.8179 80.409 35.5583C80.409 35.3276 80.5388 35.2122 80.6253 35.2122C80.7262 35.2122 80.8416 35.2988 80.8416 35.5151C80.8416 35.7026 80.7839 36.0487 80.6397 36.3803ZM78.1016 38.8752C78.1016 37.7503 78.8082 36.4813 79.5149 35.7314C79.6447 36.1352 80.034 36.5678 80.4378 36.813C80.308 37.1879 80.1205 37.5773 79.9187 37.9666C79.4283 38.8752 78.8371 39.4376 78.4477 39.4376C78.217 39.4376 78.1016 39.279 78.1016 38.8752ZM88.2107 37.7936C88.153 37.5052 87.8502 37.4331 87.706 37.7359C87.331 38.5291 86.3504 39.4808 85.3409 39.7116C85.7591 39.3655 86.2206 38.6444 86.5667 37.9666C86.884 37.3033 87.1291 36.539 87.1291 35.9189C87.1291 35.4862 87.0138 35.0969 86.7109 34.7796C86.4946 34.52 86.1918 34.4047 85.8889 34.4047C85.4563 34.4047 85.0525 34.6066 84.692 34.895C84.6631 34.7508 84.6199 34.6066 84.5766 34.4912C84.4468 34.1739 84.1873 34.1162 83.9709 34.4479C83.2787 35.4862 82.5 36.438 81.7357 36.5822C81.8366 35.616 81.5194 35.4141 81.0435 34.8517C80.7695 34.4768 80.5099 34.3326 80.0917 34.3326C79.1255 34.3326 78.2314 35.068 77.5825 36.2073C77.1931 36.8851 76.9768 37.5917 76.9768 38.2406C76.9768 38.6877 77.0921 39.1203 77.3661 39.4808C77.7844 40.0144 78.2891 40.2019 78.765 40.2019C80.1061 40.2019 81.2598 38.5435 81.6347 37.1158C81.952 37.1302 82.2116 37.087 82.4712 36.9716C81.4905 38.7598 80.4234 40.9229 80.1638 41.7449C80.0629 42.1199 80.0052 42.4371 80.0052 42.6823C80.0052 42.9851 80.1061 43.2015 80.2071 43.3601C80.3945 43.6485 80.5964 43.5764 80.7118 43.3024C81.3319 41.918 82.0385 40.4759 82.7307 39.1924C83.1489 40.0288 84.0575 40.3173 85.2256 40.3173C86.2927 40.3173 87.4464 39.726 88.0088 38.7886C88.2395 38.3993 88.2684 38.0964 88.2107 37.7936ZM97.0538 35.0103C97.2268 35.0103 97.2989 35.169 97.2989 35.3132C97.2989 36.0631 96.4337 37.0725 94.6888 38.0676C94.2417 38.3272 94.0687 38.6012 94.0687 39.0482C94.0687 39.2213 94.1408 39.5674 94.3715 39.5674C94.458 39.5674 94.5445 39.5385 94.6166 39.4953C95.0637 39.1924 95.3954 39.1059 95.7271 39.1059C95.9145 39.1059 96.0443 39.3366 95.9578 39.8269C94.7609 40.3173 93.6216 41.0672 93.0736 42.2352C92.9582 42.4804 92.915 42.6967 92.915 42.8698C92.915 43.3457 93.189 43.6918 93.4197 43.9658C93.636 44.2253 93.8523 44.3263 94.0687 44.3263C94.2417 44.3263 94.4003 44.2686 94.5445 44.1821C95.4531 43.6773 96.9673 41.543 96.9817 40.0288C97.5729 39.7548 98.3228 39.2501 98.6545 38.6877C98.7987 38.4137 98.8564 38.1109 98.8564 37.9811C98.8564 37.7359 98.7555 37.6061 98.5824 37.6061C98.4815 37.6061 98.4238 37.6638 98.3805 37.7359C97.9912 38.4858 97.4143 39.0915 96.9096 39.4232C96.7798 39.0194 96.4481 38.6589 95.9722 38.5579C96.7365 38.0387 97.3855 37.361 97.746 36.8562C97.9912 36.5245 98.2363 36.0054 98.2363 35.6881C98.2363 35.3853 98.1642 35.0825 97.9767 34.8229C97.6595 34.3902 97.1836 34.2605 96.751 34.2605C96.1453 34.2605 95.5829 34.4624 94.9051 35.2267C94.6888 35.4574 94.1408 36.2794 93.463 36.5534C93.4918 36.4236 93.5062 36.3659 93.5062 36.2073C93.5062 35.6449 93.2467 35.342 93.0159 35.0969L92.7996 34.8373C92.5112 34.4768 92.2949 34.3037 91.8622 34.3037C90.7663 34.3037 89.8001 35.3565 89.3097 36.1929C88.9492 36.8562 88.7185 37.5773 88.7185 38.2118C88.7185 38.6733 88.8483 39.0915 89.1223 39.4664C89.5116 40 90.0308 40.1875 90.5067 40.1875C90.7374 40.1875 90.9249 40.1586 91.0691 40.1009C92.1795 39.726 93.0736 38.3127 93.3764 37.1158C93.8956 37.0581 94.6888 36.7264 95.5252 35.9477C96.3183 35.169 96.7365 35.0103 97.0538 35.0103ZM92.3237 36.3803C92.1651 36.1929 92.093 35.8179 92.093 35.5583C92.093 35.3276 92.2228 35.2122 92.3093 35.2122C92.4102 35.2122 92.5256 35.2988 92.5256 35.5151C92.5256 35.7026 92.4679 36.0487 92.3237 36.3803ZM90.1462 39.4808C89.8866 39.4808 89.8433 39.0915 89.8433 38.8463C89.8433 38.3272 90.0885 37.5052 90.449 36.8274C90.7086 36.3948 91.0114 36.0198 91.2854 35.7314C91.3864 36.1496 91.6892 36.5822 92.1507 36.8562C92.0497 37.2168 91.8622 37.6061 91.6748 37.9522C91.1556 38.8175 90.4923 39.4808 90.1462 39.4808ZM93.9677 43.2015C93.9677 42.8986 94.1263 42.3939 94.5013 41.8603C94.8041 41.4277 95.2368 40.9806 95.8136 40.6057C95.5973 41.1393 95.2944 41.7161 94.9916 42.2208C94.6022 42.8698 94.2273 43.3745 94.0398 43.3745C93.9965 43.3745 93.9677 43.3024 93.9677 43.2015ZM100.083 36.5822C99.5639 37.3033 99.3044 38.1109 99.3044 38.731C99.3044 39.5818 99.7658 40.2019 100.617 40.2019C101.194 40.2019 101.842 39.7548 102.261 39.3511C102.376 39.8846 102.794 40.2596 103.515 40.2596C104.395 40.2596 105.318 39.4953 105.693 38.7021C105.895 38.2839 105.808 37.8945 105.751 37.7648C105.606 37.4619 105.477 37.4763 105.318 37.7648C104.842 38.7021 104.121 39.6827 103.602 39.6827C103.458 39.6827 103.4 39.553 103.4 39.3366C103.4 38.3704 104.611 36.7985 104.986 36.0054C105.361 35.2555 105.231 34.621 104.986 34.3326C104.813 34.1307 104.568 34.1451 104.395 34.4335L104.121 34.8806C103.991 34.5056 103.674 34.246 103.155 34.246C102.419 34.246 101.237 34.9238 100.083 36.5822ZM100.804 39.5674C100.66 39.5674 100.602 39.3943 100.602 39.1347C100.602 38.6733 100.847 37.909 101.28 37.2312C102.016 36.0487 103.011 35.1401 103.299 35.1401C103.443 35.1401 103.472 35.2411 103.472 35.4141C103.472 35.7891 103.212 36.4957 102.65 37.4763C101.943 38.6877 101.28 39.5674 100.804 39.5674Z" fill="#DEC09A"/>
<path d="M30.8838 35.7316C30.5953 35.7893 30.2348 35.8614 29.8743 35.9479L30.206 35.3134C30.3213 35.0971 30.3646 34.9385 30.3646 34.7943C30.3646 34.5635 30.206 34.3184 30.0618 34.2174C29.9031 34.1021 29.8022 34.1309 29.6868 34.304C29.4561 34.6501 29.1388 35.1836 28.8648 35.6884L28.6918 35.4432C28.4033 35.0394 28.1293 34.8664 27.74 34.9096C27.4804 34.9385 27.4227 35.1115 27.4948 35.2846C27.6967 35.6451 27.9563 36.0056 28.187 36.3806C28.014 36.4238 28.1726 36.3806 27.639 36.5392C27.1055 36.7411 26.9036 37.0295 26.8603 37.2458C26.817 37.4621 26.9901 37.5198 27.2352 37.4621C27.466 37.39 27.7544 37.3179 28.0572 37.2602C28.0284 37.3612 27.9419 37.5054 27.913 37.5775C27.7977 37.8371 27.7832 38.0678 27.7832 38.1976C27.7832 38.3707 27.8553 38.5437 27.9563 38.6591C28.1005 38.8321 28.3168 38.8321 28.4178 38.6158C28.562 38.2841 28.7639 37.9092 28.9802 37.5342L29.1532 37.7794C29.4272 38.1688 29.7012 38.1976 29.9897 38.1832C30.2348 38.1688 30.3646 38.0101 30.2204 37.8371C30.0618 37.6496 29.7445 37.2026 29.6147 36.8997C30.0041 36.8132 30.2348 36.7555 30.4511 36.6978C30.8693 36.5825 31.201 36.3517 31.2731 36.0056C31.3164 35.7749 31.2154 35.6739 30.8838 35.7316Z" fill="#DEC09A"/>
<path d="M115.006 35.7316C114.717 35.7893 114.357 35.8614 113.996 35.9479L114.328 35.3134C114.443 35.0971 114.487 34.9385 114.487 34.7943C114.487 34.5635 114.328 34.3184 114.184 34.2174C114.025 34.1021 113.924 34.1309 113.809 34.304C113.578 34.6501 113.261 35.1836 112.987 35.6884L112.814 35.4432C112.525 35.0394 112.251 34.8664 111.862 34.9096C111.602 34.9385 111.545 35.1115 111.617 35.2846C111.819 35.6451 112.078 36.0056 112.309 36.3806C112.136 36.4238 112.295 36.3806 111.761 36.5392C111.228 36.7411 111.026 37.0295 110.982 37.2458C110.939 37.4621 111.112 37.5198 111.357 37.4621C111.588 37.39 111.876 37.3179 112.179 37.2602C112.15 37.3612 112.064 37.5054 112.035 37.5775C111.92 37.8371 111.905 38.0678 111.905 38.1976C111.905 38.3707 111.977 38.5437 112.078 38.6591C112.223 38.8321 112.439 38.8321 112.54 38.6158C112.684 38.2841 112.886 37.9092 113.102 37.5342L113.275 37.7794C113.549 38.1688 113.823 38.1976 114.112 38.1832C114.357 38.1688 114.487 38.0101 114.342 37.8371C114.184 37.6496 113.867 37.2026 113.737 36.8997C114.126 36.8132 114.357 36.7555 114.573 36.6978C114.991 36.5825 115.323 36.3517 115.395 36.0056C115.438 35.7749 115.338 35.6739 115.006 35.7316Z" fill="#DEC09A"/>
</svg>
